<?xml version="1.0" standalone="no"?>
<!DOCTYPE svg PUBLIC "-//W3C//DTD SVG 20010904//EN"
 "http://www.w3.org/TR/2001/REC-SVG-20010904/DTD/svg10.dtd">
<svg version="1.0" xmlns="http://www.w3.org/2000/svg"
 width="512.000000pt" height="512.000000pt" viewBox="0 0 512.000000 512.000000"
 preserveAspectRatio="xMidYMid meet">
<g transform="translate(0.000000,512.000000) scale(0.100000,-0.100000)"
fill="#000000" stroke="none">
<path d="M180 4050 c-65 -12 -129 -59 -160 -118 -17 -34 -15 -153 3 -188 8
-16 551 -617 1205 -1335 922 -1011 1199 -1309 1230 -1323 52 -24 152 -24 204
0 31 14 292 294 1156 1243 614 674 1150 1262 1191 1306 40 44 80 93 88 109 20
38 19 155 0 192 -53 101 -187 145 -285 95 -28 -14 -137 -127 -349 -358 -474
-521 -580 -637 -1128 -1238 -280 -307 -567 -622 -638 -700 -70 -77 -132 -140
-137 -140 -5 0 -67 63 -137 140 -71 78 -357 393 -638 700 -548 601 -654 717
-1128 1238 -169 185 -322 345 -340 354 -42 22 -94 30 -137 23z m78 -33 c7 -5
20 -6 30 -2 9 3 13 3 10 -1 -4 -3 14 -21 40 -39 26 -17 47 -36 47 -42 0 -5 15
-26 33 -47 17 -20 32 -34 32 -31 0 4 19 -15 41 -42 23 -26 53 -60 68 -74 42
-43 67 -72 80 -97 7 -12 15 -21 19 -18 9 5 32 -20 25 -28 -4 -3 -2 -6 4 -6 6
0 56 -51 110 -112 55 -62 129 -144 166 -183 36 -38 63 -73 60 -79 -3 -5 -1 -6
5 -2 7 4 12 2 12 -4 0 -6 5 -8 12 -4 8 5 9 2 5 -9 -4 -10 -2 -16 5 -14 7 1 13
-5 13 -13 0 -8 6 -14 13 -13 7 2 11 0 10 -5 -1 -4 19 -28 46 -54 26 -27 44
-48 39 -48 -4 -1 3 -7 17 -15 14 -8 22 -14 17 -15 -4 0 15 -22 42 -50 27 -27
47 -50 45 -50 -3 0 19 -25 49 -55 30 -30 53 -55 51 -55 -4 0 114 -127 194
-209 39 -41 72 -78 72 -82 0 -3 18 -23 40 -43 22 -20 37 -36 34 -36 -3 0 15
-20 42 -45 26 -25 45 -45 41 -45 -3 0 13 -19 36 -43 68 -69 156 -167 152 -167
-5 0 97 -109 192 -206 29 -30 50 -54 47 -54 -6 0 52 -63 163 -176 34 -35 60
-64 58 -64 -3 0 11 -16 29 -35 43 -44 69 -44 112 0 18 19 32 35 30 35 -2 0 26
31 63 69 119 123 163 171 157 171 -3 0 18 24 47 53 93 96 197 207 192 207 -5
0 52 62 152 166 23 24 39 44 36 44 -4 0 15 20 41 45 27 25 46 45 43 45 -3 0
11 17 31 38 41 41 154 162 248 265 34 36 59 69 55 73 -3 4 2 4 11 1 10 -3 17
-3 15 2 -1 5 17 29 40 55 23 25 40 46 38 46 -2 0 14 18 36 40 21 21 39 44 39
49 0 6 12 17 28 25 15 8 23 15 19 16 -5 0 13 21 39 48 27 26 47 50 46 54 -1 5
3 7 10 5 7 -1 13 3 13 8 3 23 18 45 26 39 5 -3 9 0 9 6 0 6 5 8 12 4 6 -4 8
-3 5 3 -3 5 20 36 51 69 31 32 109 118 172 189 144 162 137 155 143 149 3 -3
11 5 18 18 15 28 44 61 184 208 39 41 70 78 70 83 0 6 21 25 47 42 26 18 44
36 40 39 -3 4 1 4 11 0 9 -3 23 -2 30 4 9 8 82 9 82 2 0 -1 11 -3 24 -6 26 -5
104 -79 109 -104 2 -8 10 -27 17 -43 8 -16 9 -25 3 -21 -8 5 -9 1 -5 -10 13
-35 -49 -131 -147 -228 -33 -32 -56 -58 -52 -58 4 0 -9 -15 -28 -32 -20 -18
-47 -49 -61 -68 -14 -19 -34 -35 -43 -35 -9 -1 -16 -6 -15 -12 1 -6 -26 -42
-62 -79 -35 -37 -61 -72 -58 -77 3 -6 1 -7 -4 -4 -6 4 -26 -13 -44 -38 -19
-24 -40 -42 -47 -40 -7 3 -11 1 -7 -4 3 -5 -15 -31 -40 -56 -25 -26 -45 -51
-45 -55 0 -4 -12 -15 -26 -25 -14 -9 -24 -19 -21 -22 3 -2 -16 -26 -41 -52
-26 -27 -71 -74 -101 -105 -29 -31 -57 -54 -61 -51 -5 3 -12 0 -16 -6 -4 -8
-3 -9 4 -5 29 18 6 -15 -58 -84 -39 -41 -70 -78 -70 -82 0 -4 -9 -9 -20 -13
-11 -3 -19 -10 -17 -14 2 -7 -20 -33 -103 -121 -39 -42 -171 -187 -212 -234
-15 -17 -28 -35 -28 -39 0 -5 -4 -5 -10 -2 -5 3 -10 2 -10 -2 0 -5 -23 -33
-51 -63 -28 -30 -102 -112 -166 -183 -65 -72 -119 -124 -125 -121 -6 4 -8 2
-5 -3 7 -10 -57 -87 -115 -141 -15 -14 -25 -29 -22 -33 3 -5 -3 -6 -12 -2 -10
4 -15 2 -11 -3 3 -5 -17 -34 -45 -64 -28 -30 -57 -65 -66 -78 -8 -12 -21 -22
-29 -22 -8 0 -11 -4 -8 -10 3 -5 -2 -10 -11 -10 -10 0 -15 -3 -11 -6 8 -8 -18
-34 -35 -35 -9 0 -10 -2 -1 -5 7 -3 -29 -48 -85 -106 -53 -56 -118 -123 -143
-150 -27 -28 -55 -48 -68 -48 -11 0 -21 -3 -21 -7 0 -5 -27 -8 -60 -8 -33 0
-60 3 -60 6 0 4 -13 9 -28 12 -18 4 -59 40 -123 109 -53 57 -114 122 -136 146
-23 23 -36 42 -29 43 6 0 5 3 -3 6 -22 9 -61 50 -54 57 4 3 -1 6 -10 6 -9 0
-20 6 -24 14 -11 19 -104 125 -185 210 -38 39 -70 79 -74 89 -3 9 -10 17 -15
17 -6 0 -7 5 -3 12 4 6 3 8 -4 4 -6 -3 -64 54 -134 131 -68 76 -155 172 -194
213 -40 41 -87 93 -105 114 -19 21 -45 51 -59 66 -14 14 -56 62 -95 105 -38
43 -98 108 -132 143 -35 35 -63 66 -63 69 0 3 -21 28 -47 55 -108 113 -131
138 -198 213 -38 43 -78 85 -87 94 -10 8 -18 18 -18 22 0 4 -20 28 -45 54 -25
25 -42 51 -39 57 4 7 2 8 -5 4 -7 -5 -22 6 -39 25 -15 18 -48 55 -74 82 -27
27 -48 51 -48 54 0 2 -24 28 -52 56 -29 29 -80 84 -113 122 -33 38 -89 101
-125 140 -87 95 -93 103 -111 155 -14 41 -14 48 2 80 9 19 15 37 13 39 -8 8
84 91 104 94 12 2 23 5 26 8 8 7 70 4 84 -4z"/>
<path d="M370 4046 c0 -2 7 -7 16 -10 8 -3 12 -2 9 4 -6 10 -25 14 -25 6z"/>
<path d="M4725 4040 c-3 -6 1 -7 9 -4 18 7 21 14 7 14 -6 0 -13 -4 -16 -10z"/>
<path d="M540 3901 c0 -6 4 -13 10 -16 6 -3 7 1 4 9 -7 18 -14 21 -14 7z"/>
<path d="M4570 3906 c0 -2 7 -7 16 -10 8 -3 12 -2 9 4 -6 10 -25 14 -25 6z"/>
<path d="M4907 3469 c7 -7 15 -10 18 -7 3 3 -2 9 -12 12 -14 6 -15 5 -6 -5z"/>
<path d="M425 3221 c-3 -5 -2 -12 3 -15 5 -3 9 1 9 9 0 17 -3 19 -12 6z"/>
<path d="M4683 3215 c0 -8 4 -12 9 -9 5 3 6 10 3 15 -9 13 -12 11 -12 -6z"/>
<path d="M1410 2946 c0 -2 8 -10 18 -17 15 -13 16 -12 3 4 -13 16 -21 21 -21
13z"/>
<path d="M3689 2933 c-13 -16 -12 -17 4 -4 16 13 21 21 13 21 -2 0 -10 -8 -17
-17z"/>
<path d="M1450 2856 c0 -2 8 -10 18 -17 15 -13 16 -12 3 4 -13 16 -21 21 -21
13z"/>
<path d="M3649 2843 c-13 -16 -12 -17 4 -4 9 7 17 15 17 17 0 8 -8 3 -21 -13z"/>
<path d="M1970 2300 c8 -5 20 -10 25 -10 6 0 3 5 -5 10 -8 5 -19 10 -25 10 -5
0 -3 -5 5 -10z"/>
<path d="M3004 2128 l-19 -23 23 19 c21 18 27 26 19 26 -2 0 -12 -10 -23 -22z"/>
<path d="M2385 1831 c-3 -5 -2 -12 3 -15 5 -3 9 1 9 9 0 17 -3 19 -12 6z"/>
<path d="M1776 1711 c-3 -5 2 -15 12 -22 15 -12 16 -12 5 2 -7 9 -10 19 -6 22
3 4 4 7 0 7 -3 0 -8 -4 -11 -9z"/>
<path d="M3333 1713 c4 -3 1 -13 -6 -22 -11 -14 -10 -14 5 -2 16 12 16 31 1
31 -4 0 -3 -3 0 -7z"/>
<path d="M2003 1466 c-3 -6 -2 -8 2 -3 5 4 18 -1 29 -10 15 -14 18 -14 8 -2
-6 9 -10 18 -7 21 3 2 -2 5 -10 5 -9 0 -19 -5 -22 -11z"/>
<path d="M3084 1473 c3 -4 0 -13 -6 -22 -10 -12 -7 -12 8 2 11 9 23 16 25 15
2 -2 3 -1 1 1 -1 3 -10 6 -18 7 -9 1 -13 0 -10 -3z"/>
</g>
</svg>
